<svg width="1024" height="1024" viewBox="0 0 1024 1024" fill="none" xmlns="http://www.w3.org/2000/svg">
<rect width="1024" height="1024" fill="white" style="fill:white;fill-opacity:1;"/>
<path fill-rule="evenodd" clip-rule="evenodd" d="M821.804 203.177C842.065 223.413 842.065 256.224 821.804 276.46L618.372 479.636C618.362 479.646 618.346 479.646 618.337 479.636C618.325 479.623 618.304 479.627 618.297 479.643L561.696 614.788C525.76 700.595 501.683 755.467 496.441 763.503C481.293 786.723 457.064 807.767 431.541 819.873C408.174 830.955 392.356 834.752 364.603 835.934L351.705 836.483C343.64 836.826 335.563 836.192 327.651 834.594L322.784 833.611C287.456 826.473 257.771 809.548 231.629 781.642L225.627 775.235C219.083 768.249 213.576 760.359 209.274 751.807L206.556 746.403C193.063 719.58 189.32 704.915 188.066 673.961L187.546 661.127C187.184 652.191 188.022 643.247 190.038 634.534L191.43 628.518C201.435 585.278 228.896 546.862 265.626 524.726C271.543 521.162 323.819 498.451 381.796 474.26C439.776 450.068 500.305 424.791 516.306 418.09L545.324 405.936C545.336 405.931 545.351 405.934 545.361 405.943C545.375 405.956 545.396 405.956 545.409 405.942L748.429 203.177C768.691 182.941 801.543 182.941 821.804 203.177ZM519.006 445.959C536.483 435.419 549.474 426.884 547.881 426.991C546.264 427.108 485.785 451.989 413.469 482.287C337.811 513.987 277.219 540.536 270.775 544.807C264.618 548.888 253.261 558.871 245.539 566.991L242.358 570.335C235.16 577.901 229.192 586.548 224.67 595.961L222.617 600.235C217.734 610.4 212.32 625.158 210.583 633.03C206.929 649.613 206.444 682.541 209.634 697.398C210.387 700.907 215.104 701.576 216.802 698.414L221.794 689.118C259.851 618.253 303.139 579.258 433.449 498.459C449.877 488.274 468.696 476.607 475.268 472.533C481.839 468.46 501.522 456.502 519.006 445.959ZM564.286 445.186C568.421 440.235 562.476 442.954 540.983 455.843C442.955 514.632 372.252 559.99 334.876 588.07C305.596 610.067 275.758 641.018 257.406 668.428C242.477 690.724 223.361 727.802 223.36 734.462C223.361 738.675 239.043 763.156 242.472 764.299C244.166 764.765 553.846 457.686 564.286 445.186ZM550.307 512.311C584.38 457.263 583.725 458.429 580.312 458.753C579.418 458.905 506.86 530.892 419.012 618.787C331.128 706.718 259.22 779.558 259.205 780.665C259.208 781.758 264.659 786.35 271.322 790.869L278.028 795.417C281.495 797.769 285.752 798.655 289.87 797.883C300.66 795.862 342.785 773.984 361.631 760.615C385.074 743.986 416.66 712.807 433.859 689.32C460.767 652.578 506.783 582.633 550.307 512.311ZM597.46 475.627C597.061 475.269 586.433 491.602 573.84 511.924C530.913 581.202 489.493 645.088 464.673 680.301C422.634 739.942 388.194 771.856 337.751 797.912C325.257 804.366 315.02 810.192 314.996 810.865C314.93 813.45 338.457 816.608 357.793 816.608C396.239 816.608 430.378 803.589 456.97 778.787C482.533 754.945 475.5 769.781 582.128 514.686C590.954 493.572 597.852 476 597.46 475.627ZM807.723 262.396C820.207 249.927 820.207 229.71 807.723 217.241C795.238 204.772 774.995 204.772 762.51 217.241L595.778 383.764C583.282 396.245 583.282 416.496 595.778 428.976C608.252 441.435 628.46 441.435 640.934 428.976L807.723 262.396Z" fill="black" style="fill:black;fill-opacity:1;"/>
</svg>
