<svg width="650" height="649" viewBox="0 0 650 649" fill="none" xmlns="http://www.w3.org/2000/svg">
<path fill-rule="evenodd" clip-rule="evenodd" d="M634.804 15.177C655.065 35.4132 655.065 68.224 634.804 88.4604L431.372 291.636C431.362 291.646 431.346 291.646 431.337 291.636V291.636C431.325 291.623 431.304 291.627 431.297 291.643L374.696 426.788C338.76 512.595 314.683 567.467 309.441 575.503C294.293 598.723 270.064 619.767 244.541 631.873C221.174 642.955 205.356 646.752 177.603 647.934L164.705 648.483C156.64 648.826 148.563 648.192 140.651 646.594L135.784 645.611C100.456 638.473 70.7713 621.547 44.6288 593.642L38.6274 587.235C32.0831 580.249 26.5758 572.359 22.2742 563.807L19.5559 558.403C6.06258 531.58 2.32029 516.915 1.06573 485.961L0.545657 473.127C0.183547 464.191 1.02177 455.247 3.03789 446.534L4.43005 440.518C14.4347 397.278 41.8955 358.862 78.6259 336.726C84.5427 333.162 136.819 310.451 194.796 286.26C252.776 262.068 313.305 236.791 329.306 230.09L358.324 217.936C358.336 217.931 358.351 217.934 358.361 217.943V217.943C358.375 217.956 358.396 217.956 358.409 217.942L561.429 15.177C581.691 -5.05883 614.543 -5.05918 634.804 15.177ZM332.006 257.959C349.483 247.419 362.474 238.884 360.881 238.991C359.264 239.108 298.785 263.989 226.469 294.287C150.811 325.987 90.2192 352.536 83.7754 356.807C77.6182 360.888 66.2614 370.871 58.5392 378.991L55.3577 382.335C48.16 389.901 42.1919 398.548 37.6702 407.961L35.6171 412.235C30.7344 422.4 25.3199 437.158 23.5833 445.03C19.9293 461.613 19.4442 494.541 22.6343 509.398V509.398C23.387 512.907 28.1041 513.576 29.8021 510.414L34.7945 501.118C72.8513 430.253 116.139 391.258 246.449 310.459C262.877 300.274 281.696 288.607 288.268 284.533C294.839 280.46 314.522 268.502 332.006 257.959ZM377.286 257.186C381.421 252.235 375.476 254.954 353.983 267.843C255.955 326.632 185.252 371.99 147.876 400.07C118.596 422.067 88.7579 453.018 70.4057 480.428C55.4769 502.724 36.3612 539.802 36.36 546.462C36.3607 550.675 52.0425 575.156 55.4724 576.299C57.1661 576.765 366.846 269.686 377.286 257.186ZM363.307 324.311C397.38 269.263 396.725 270.429 393.312 270.753C392.418 270.905 319.86 342.892 232.012 430.787C144.128 518.718 72.2199 591.558 72.2045 592.665C72.2075 593.758 77.6589 598.35 84.3219 602.869L91.0276 607.417C94.4954 609.769 98.7521 610.656 102.87 609.883V609.883C113.66 607.862 155.785 585.984 174.631 572.615C198.074 555.986 229.66 524.807 246.859 501.32C273.767 464.578 319.783 394.633 363.307 324.311ZM410.46 287.627C410.061 287.269 399.433 303.602 386.84 323.924C343.913 393.202 302.493 457.088 277.673 492.301C235.634 551.942 201.194 583.856 150.751 609.912C138.257 616.366 128.02 622.192 127.996 622.865C127.93 625.45 151.457 628.608 170.793 628.608C209.239 628.608 243.378 615.589 269.97 590.787C295.533 566.945 288.5 581.781 395.128 326.686C403.954 305.572 410.852 288 410.46 287.627ZM620.723 74.3965C633.207 61.9271 633.207 41.7101 620.723 29.2409C608.238 16.7717 587.995 16.7721 575.51 29.2409L408.778 195.764C396.282 208.245 396.282 228.496 408.778 240.976V240.976C421.252 253.435 441.46 253.435 453.934 240.976L620.723 74.3965Z" fill="white" style="fill:white;fill-opacity:1;"/>
</svg>
